<svg width="178" height="98" viewBox="0 0 178 98" fill="none" xmlns="http://www.w3.org/2000/svg">
<g filter="url(#filter0_d)">
<rect x="4.5" y="0.5" width="169" height="89" rx="3.5" stroke="#AFB1B8"/>
<path d="M73 20L80.3076 26.918H100.692V46.2158L108 53.1338V20H73Z" fill="#AFB1B8"/>
<path d="M67 26.6265V58.8137H101V46.0195L80.5231 26.6344L67 26.6265ZM94.5231 54.1055H72.3801V32.4579H73.9453V52.6397H94.5231V54.1055Z" fill="#AFB1B8"/>
<path d="M76.791 64.7837L77.6089 63.0991H78.2925L77.1011 65.3452V66.6538H76.481V65.3452L75.2871 63.0991H75.9731L76.791 64.7837ZM80.3018 65.8262H78.9248L78.6367 66.6538H77.9946L79.3374 63.0991H79.8916L81.2368 66.6538H80.5923L80.3018 65.8262ZM79.0981 65.3281H80.1284L79.6133 63.8535L79.0981 65.3281ZM82.7358 65.6943C82.7358 65.5299 82.7806 65.3794 82.8701 65.2427C82.9596 65.1043 83.1362 64.9408 83.3999 64.752C83.2616 64.5778 83.1647 64.4297 83.1094 64.3076C83.0557 64.1855 83.0288 64.0675 83.0288 63.9536C83.0288 63.6753 83.1134 63.4556 83.2827 63.2944C83.452 63.1317 83.6799 63.0503 83.9663 63.0503C84.2251 63.0503 84.4367 63.1268 84.6011 63.2798C84.7671 63.4312 84.8501 63.6191 84.8501 63.8438C84.8501 63.9919 84.8127 64.1286 84.7378 64.2539C84.6629 64.3776 84.54 64.5013 84.3691 64.625L84.1274 64.8008L84.8135 65.6113C84.9128 65.416 84.9624 65.1987 84.9624 64.9595H85.4775C85.4775 65.3973 85.375 65.7562 85.1699 66.0361L85.6924 66.6538H85.0039L84.8037 66.417C84.5498 66.6074 84.2471 66.7026 83.8955 66.7026C83.5439 66.7026 83.2624 66.6099 83.0508 66.4243C82.8408 66.2371 82.7358 65.9938 82.7358 65.6943ZM83.9126 66.229C84.1128 66.229 84.3 66.1623 84.4741 66.0288L83.6978 65.1133L83.6221 65.167C83.4268 65.3151 83.3291 65.4844 83.3291 65.6748C83.3291 65.8392 83.382 65.9727 83.4878 66.0752C83.5936 66.1777 83.7352 66.229 83.9126 66.229ZM83.5854 63.939C83.5854 64.0757 83.6693 64.2474 83.8369 64.4541L84.1079 64.2686L84.1836 64.2075C84.2845 64.118 84.335 64.0033 84.335 63.8633C84.335 63.7705 84.3 63.6916 84.23 63.6265C84.16 63.5597 84.0713 63.5264 83.9639 63.5264C83.8483 63.5264 83.7563 63.5654 83.688 63.6436C83.6196 63.7217 83.5854 63.8201 83.5854 63.939ZM90.043 65.4966C90.0072 65.8758 89.8672 66.172 89.623 66.3853C89.3789 66.5968 89.0542 66.7026 88.6489 66.7026C88.3657 66.7026 88.1159 66.6359 87.8994 66.5024C87.6846 66.3674 87.5186 66.1761 87.4014 65.9287C87.2842 65.6813 87.2231 65.394 87.2183 65.0669V64.7349C87.2183 64.3996 87.2777 64.1042 87.3965 63.8486C87.5153 63.5931 87.6854 63.3962 87.9067 63.2578C88.1297 63.1195 88.3869 63.0503 88.6782 63.0503C89.0705 63.0503 89.3862 63.1569 89.6255 63.3701C89.8647 63.5833 90.0039 63.8844 90.043 64.2734H89.4277C89.3984 64.0179 89.3236 63.834 89.2031 63.7217C89.0843 63.6077 88.9093 63.5508 88.6782 63.5508C88.4097 63.5508 88.203 63.6493 88.0581 63.8462C87.9149 64.0415 87.8416 64.3288 87.8384 64.708V65.0229C87.8384 65.4071 87.9067 65.7 88.0435 65.9019C88.1818 66.1037 88.3836 66.2046 88.6489 66.2046C88.8914 66.2046 89.0737 66.1501 89.1958 66.041C89.3179 65.932 89.3952 65.7505 89.4277 65.4966H90.043ZM93.4341 64.9692C93.4341 65.3175 93.3739 65.6235 93.2534 65.8872C93.133 66.1493 92.9604 66.3511 92.7358 66.4927C92.5129 66.6326 92.2557 66.7026 91.9644 66.7026C91.6763 66.7026 91.4191 66.6326 91.1929 66.4927C90.9683 66.3511 90.7941 66.1501 90.6704 65.8896C90.5483 65.6292 90.4865 65.3289 90.4849 64.9888V64.7886C90.4849 64.4419 90.5459 64.1359 90.668 63.8706C90.7917 63.6053 90.965 63.4027 91.188 63.2627C91.4126 63.1211 91.6698 63.0503 91.9595 63.0503C92.2492 63.0503 92.5055 63.1203 92.7285 63.2603C92.9531 63.3986 93.1265 63.5988 93.2485 63.8608C93.3706 64.1213 93.4325 64.4248 93.4341 64.7715V64.9692ZM92.8164 64.7837C92.8164 64.3898 92.7415 64.0879 92.5918 63.8779C92.4437 63.668 92.2329 63.563 91.9595 63.563C91.6925 63.563 91.4834 63.668 91.332 63.8779C91.1823 64.0863 91.1058 64.3817 91.1025 64.7642V64.9692C91.1025 65.3599 91.1782 65.6618 91.3296 65.875C91.4826 66.0882 91.6942 66.1948 91.9644 66.1948C92.2378 66.1948 92.4478 66.0907 92.5942 65.8823C92.7424 65.674 92.8164 65.3696 92.8164 64.9692V64.7837Z" fill="#AFB1B8"/>
</g>
<defs>
<filter id="filter0_d" x="0" y="0" width="178" height="98" filterUnits="userSpaceOnUse" color-interpolation-filters="sRGB">
<feFlood flood-opacity="0" result="BackgroundImageFix"/>
<feColorMatrix in="SourceAlpha" type="matrix" values="0 0 0 0 0 0 0 0 0 0 0 0 0 0 0 0 0 0 127 0"/>
<feOffset dy="4"/>
<feGaussianBlur stdDeviation="2"/>
<feColorMatrix type="matrix" values="0 0 0 0 0 0 0 0 0 0 0 0 0 0 0 0 0 0 0.25 0"/>
<feBlend mode="normal" in2="BackgroundImageFix" result="effect1_dropShadow"/>
<feBlend mode="normal" in="SourceGraphic" in2="effect1_dropShadow" result="shape"/>
</filter>
</defs>
</svg>
